<svg xmlns="http://www.w3.org/2000/svg" viewBox="0 0 64 64">
  <rect width="64" height="64" rx="14" fill="#080a0d"/>
  <path fill="#fc4c02" d="M38.9 12.6a6 6 0 1 1-8.5 8.5 6 6 0 0 1 8.5-8.5Z"/>
  <path fill="#f6f3ed" d="M31.7 25.1c2.2-1.2 5-.6 6.5 1.5l4.8 6.6 6.3 1.8a4 4 0 0 1-2.2 7.7l-7.7-2.2a4 4 0 0 1-2.1-1.5l-2.2-3-4 6.2 5.7 5.4a4.1 4.1 0 0 1 .2 5.8 4.1 4.1 0 0 1-5.8.2l-8-7.6a4 4 0 0 1-.6-5.1l4.2-6.5-5.2 2.8-2.4 6.4a4 4 0 1 1-7.5-2.8l3-8a4 4 0 0 1 1.8-2.1l15.2-8.6Z"/>
  <path fill="#87d37c" d="M17.7 53.8h10.1a3.2 3.2 0 0 1 0 6.4H17.7a3.2 3.2 0 1 1 0-6.4Z"/>
</svg>
